<?xml version="1.0" encoding="utf-8"?><svg xmlns="http://www.w3.org/2000/svg" xmlns:xlink="http://www.w3.org/1999/xlink"><symbol viewBox="0 -88 512 512" id="broken-clouds" xmlns="http://www.w3.org/2000/svg"><path d="M328.14 167.828c-1.378 0-2.742.07-4.09.184a128.497 128.497 0 004.09-32.246c0-70.832-57.417-128.25-128.25-128.25S71.64 64.934 71.64 135.766c-35.413 0-64.124 28.707-64.124 64.125 0 35.414 28.71 64.125 64.125 64.125h256.5c26.562 0 48.093-21.532 48.093-48.094s-21.53-48.094-48.093-48.094zm0 0" fill="#57bfe6"/><path d="M456.39 231.953c-1.378 0-2.742.07-4.09.184a128.432 128.432 0 004.09-32.246c0-70.832-57.417-128.25-128.25-128.25-70.827 0-128.25 57.418-128.25 128.25-35.413 0-64.124 28.71-64.124 64.125s28.71 64.125 64.125 64.125h256.5c26.562 0 48.093-21.532 48.093-48.094s-21.53-48.094-48.093-48.094zm0 0" fill="#b8ecff"/><path d="M280.047 280.547h16.031v15.031h-16.031zm32.063 0h16.03v15.031h-16.03zm32.062 0h16.031v15.031h-16.031zm0 0" fill="#fff"/><path d="M456.39 231.953c-1.378 0-2.742.07-4.09.184a128.432 128.432 0 004.09-32.246c0-70.832-57.417-128.25-128.25-128.25-4.054 0-8.066.195-12.023.562 65.192 6.067 116.227 60.91 116.227 127.688 0 11.136-1.422 21.945-4.09 32.246a48.785 48.785 0 014.09-.184c26.562 0 48.094 21.531 48.094 48.094s-21.532 48.094-48.094 48.094h24.047c26.562 0 48.093-21.532 48.093-48.094s-21.53-48.094-48.093-48.094zm0 0" fill="#57bfe6"/><path d="M15.031 200.14c0-28.75 21.547-52.667 49.336-56.253a134.994 134.994 0 004.035 25.875l14.555-3.778a121.31 121.31 0 01-3.8-30.203c0-66.574 54.16-120.746 120.734-120.746 34.617 0 67.62 14.895 90.55 40.871l11.27-9.949C275.93 16.75 238.82 0 199.89 0 127.426 0 68.039 57.07 64.313 128.621 28.238 132.305 0 163.113 0 200.141c0 39.504 32.137 71.89 71.64 71.89h40.079v-15.027H71.64c-31.215 0-56.61-25.649-56.61-56.863zm0 0"/><path d="M199.89 63.121V48.094c-48.343 0-87.671 39.328-87.671 87.672h15.031c0-40.055 32.586-72.645 72.64-72.645zm261.712 161.57a135.288 135.288 0 002.304-24.8c0-74.864-60.902-135.766-135.765-135.766-72.465 0-131.852 57.07-135.579 128.625-36.074 3.68-64.312 34.488-64.312 71.516 0 39.504 32.137 71.89 71.64 71.89h256.5c30.665 0 55.61-25.195 55.61-55.86 0-28.905-22.172-52.972-50.398-55.605zm-5.211 96.438h-256.5c-31.215 0-56.61-25.649-56.61-56.863 0-28.75 21.547-52.668 49.336-56.254a135.388 135.388 0 004.035 25.879l14.555-3.782a121.314 121.314 0 01-3.805-30.203c0-66.574 54.164-120.746 120.739-120.746s120.734 54.16 120.734 120.735c0 27.753-9.152 53.843-26.477 75.453l11.727 9.402c10.79-13.46 18.855-28.867 23.852-45.242 21.64.836 38.992 18.945 38.992 40.789 0 22.375-18.203 40.832-40.578 40.832zm0 0"/><path d="M240.469 199.89H255.5c0-40.054 32.586-72.64 72.64-72.64v-15.031c-48.343 0-87.671 39.328-87.671 87.672zm0 0"/></symbol><symbol viewBox="0 0 512 512" id="clear-sky" xmlns="http://www.w3.org/2000/svg"><path d="M400.781 255.5c0 79.684-64.594 144.281-144.281 144.281-79.684 0-144.281-64.597-144.281-144.281 0-79.688 64.597-144.281 144.281-144.281 79.688 0 144.281 64.594 144.281 144.281zm0 0" fill="#feef7f"/><path d="M216.422 247.984h16.031v15.032h-16.031zm32.062 0h16.032v15.032h-16.032zm32.063 0h16.031v15.032h-16.031zm0 0" fill="#fff"/><path d="M256.5 111.219c-4.05 0-8.059.172-12.023.5 74.058 6.113 132.257 68.144 132.257 143.781s-58.199 137.668-132.257 143.781c3.964.324 7.972.5 12.023.5 79.688 0 144.281-64.597 144.281-144.281S336.187 111.219 256.5 111.219zm24.047-32.063h-48.094l22.043-72.14h4.008zm-48.094 352.688h48.094l-22.043 72.14h-4.008zM398.2 147.809L364.19 113.8l66.598-35.426 2.836 2.836zM114.805 363.188l34.007 34.007-66.601 35.426-2.832-2.832zm318.039-83.641v-48.094l72.14 22.043v4.008zM80.156 231.453v48.094l-72.14-22.043v-4.008zm284.035 165.742l34.008-34.007 35.426 66.601-2.836 2.832zM148.813 113.8l-34.008 34.009L79.379 81.21l2.832-2.836zm0 0" fill="#ea9a10"/><path d="M256.5 103.703c-83.7 0-151.797 68.094-151.797 151.797 0 83.7 68.098 151.797 151.797 151.797 83.703 0 151.797-68.098 151.797-151.797 0-83.703-68.094-151.797-151.797-151.797zm0 288.563c-75.414 0-136.766-61.352-136.766-136.766S181.086 118.73 256.5 118.73s136.77 61.356 136.77 136.77-61.356 136.766-136.77 136.766zm0 0"/><path d="M152.797 255.5h15.031c0-48.895 39.777-88.676 88.672-88.676v-15.027c-57.18 0-103.703 46.52-103.703 103.703zM264.066 0h-15.132L222.3 87.172h68.402zM256.5 26.672l13.895 45.469h-27.786zM248.934 512h15.132l26.637-87.172h-68.402zm7.566-26.672l-13.89-45.469h27.785zm186.371-405.5l-10.7-10.7-80.472 42.806 48.367 48.367zm-66.187 35.836L418.66 93.34l-22.324 41.976zM70.133 431.168l10.699 10.7 80.473-42.805-48.368-48.368zm66.183-35.836L94.344 417.66l22.324-41.976zm288.512-174.035v68.402L512 263.066v-15.132zm15.031 48.094v-27.786l45.47 13.895zM87.172 221.297L0 247.934v15.132L87.172 289.7zM72.14 269.39L26.67 255.5l45.47-13.895zM351.7 399.063l80.472 42.804 10.7-10.699-42.806-80.473zm24.984-3.731l19.648-19.648 22.328 41.976zM161.305 111.934L80.832 69.133l-10.7 10.695 42.805 80.473zm-24.989 3.73l-19.648 19.648L94.344 93.34zm0 0"/></symbol><symbol viewBox="0 -88 512 512" id="clear-sky-night" xmlns="http://www.w3.org/2000/svg"><path d="M416 167.5c0 88.367-71.633 160-160 160s-160-71.633-160-160 71.633-160 160-160 160 71.633 160 160zm0 0" fill="#feef7f"/><path d="M216 160h16v15h-16zm32 0h16v15h-16zm32 0h16v15h-16zm0 0" fill="#fff"/><path d="M256 7.5c-4.035 0-8.04.152-12 .445 82.762 6.14 148 75.227 148 159.555s-65.238 153.414-148 159.555c3.96.293 7.965.445 12 .445 88.363 0 160-71.633 160-160s-71.637-160-160-160zm0 0" fill="#ea9a10"/><path d="M512 183.5c-17.672 0-32 14.328-32 32 0-17.672-14.328-32-32-32 17.672 0 32-14.328 32-32 0 17.672 14.328 32 32 32zm-64-64c-17.672 0-32 14.328-32 32 0-17.672-14.328-32-32-32 17.672 0 32-14.328 32-32 0 17.672 14.328 32 32 32zm-368 96c-17.672 0-32 14.328-32 32 0-17.672-14.328-32-32-32 17.672 0 32-14.328 32-32 0 17.672 14.328 32 32 32zm-16-112c-17.672 0-32 14.328-32 32 0-17.672-14.328-32-32-32 17.672 0 32-14.328 32-32 0 17.672 14.328 32 32 32zm0 0" fill="#fff"/><path d="M216 119.5c0 8.836-7.164 16-16 16s-16-7.164-16-16 7.164-16 16-16 16 7.164 16 16zm16 112c0 8.836-7.164 16-16 16s-16-7.164-16-16 7.164-16 16-16 16 7.164 16 16zm-56-56c0 13.254-10.746 24-24 24s-24-10.746-24-24 10.746-24 24-24 24 10.746 24 24zm0 0" fill="#ea9a10"/><path d="M256 48v15c57.621 0 104.5 46.879 104.5 104.5h15C375.5 101.605 321.895 48 256 48zm0 0"/><path d="M256 320c-84.09 0-152.5-68.41-152.5-152.5S171.91 15 256 15c27.25 0 53.988 7.27 77.324 21.027a153.4 153.4 0 0154.781 55.235l12.985-7.512c-14.461-25.004-35.262-45.973-60.149-60.645C315.301 7.988 285.926 0 256 0 163.64 0 88.5 75.14 88.5 167.5S163.64 335 256 335s167.5-75.14 167.5-167.5h-15c0 84.09-68.41 152.5-152.5 152.5zm231.5-168.5h-15c0 13.512-10.992 24.5-24.5 24.5v15c13.508 0 24.5 10.988 24.5 24.5h15c0-13.512 10.992-24.5 24.5-24.5v-15c-13.508 0-24.5-10.988-24.5-24.5zm-7.5 40.883a39.924 39.924 0 00-8.883-8.883 39.924 39.924 0 008.883-8.883 39.924 39.924 0 008.883 8.883 39.924 39.924 0 00-8.883 8.883zm0 0"/><path d="M448 112c-13.508 0-24.5-10.988-24.5-24.5h-15c0 13.512-10.992 24.5-24.5 24.5v15c13.508 0 24.5 10.988 24.5 24.5h15c0-13.512 10.992-24.5 24.5-24.5zm-32 16.383a39.924 39.924 0 00-8.883-8.883 39.924 39.924 0 008.883-8.883 39.924 39.924 0 008.883 8.883 39.924 39.924 0 00-8.883 8.883zM55.5 183.5h-15c0 13.512-10.992 24.5-24.5 24.5v15c13.508 0 24.5 10.988 24.5 24.5h15c0-13.512 10.992-24.5 24.5-24.5v-15c-13.508 0-24.5-10.988-24.5-24.5zM48 224.383a39.924 39.924 0 00-8.883-8.883A39.924 39.924 0 0048 206.617a39.924 39.924 0 008.883 8.883A39.924 39.924 0 0048 224.383zM24.5 135.5h15c0-13.512 10.992-24.5 24.5-24.5V96c-13.508 0-24.5-10.988-24.5-24.5h-15C24.5 85.012 13.508 96 0 96v15c13.508 0 24.5 10.988 24.5 24.5zM32 94.617a39.924 39.924 0 008.883 8.883A39.924 39.924 0 0032 112.383a39.924 39.924 0 00-8.883-8.883A39.924 39.924 0 0032 94.617zM223.5 119.5c0-12.957-10.543-23.5-23.5-23.5s-23.5 10.543-23.5 23.5S187.043 143 200 143s23.5-10.543 23.5-23.5zm-32 0c0-4.688 3.813-8.5 8.5-8.5s8.5 3.813 8.5 8.5-3.813 8.5-8.5 8.5-8.5-3.813-8.5-8.5zM216 255c12.957 0 23.5-10.543 23.5-23.5S228.957 208 216 208s-23.5 10.543-23.5 23.5S203.043 255 216 255zm0-32c4.688 0 8.5 3.813 8.5 8.5s-3.813 8.5-8.5 8.5-8.5-3.813-8.5-8.5 3.813-8.5 8.5-8.5zm-64-79c-17.367 0-31.5 14.133-31.5 31.5S134.633 207 152 207s31.5-14.133 31.5-31.5S169.367 144 152 144zm0 48c-9.098 0-16.5-7.402-16.5-16.5S142.902 159 152 159s16.5 7.402 16.5 16.5S161.098 192 152 192zm0 0"/></symbol><symbol viewBox="0 -72 512 512" id="few-clouds" xmlns="http://www.w3.org/2000/svg"><path d="M296.29 184.18c0 61.918-50.192 112.11-112.11 112.11S72.07 246.097 72.07 184.18 122.262 72.07 184.18 72.07s112.11 50.192 112.11 112.11zm0 0" fill="#feef7f"/><path d="M184.18 296.29c61.918 0 112.11-50.192 112.11-112.11 0-33.528-14.724-63.61-38.048-84.153-43.742 20.387-74.062 64.743-74.062 116.184-34.04 0-61.864 26.55-63.926 60.07 18.133 12.61 40.164 20.008 63.926 20.008zm0 0" fill="#ea9a10"/><path d="M456.445 264.258c-1.375 0-2.738.074-4.086.183a128.405 128.405 0 004.086-32.214c0-70.762-57.363-128.125-128.125-128.125-70.761 0-128.125 57.363-128.125 128.125-35.379 0-64.062 28.683-64.062 64.062s28.683 64.063 64.062 64.063h256.25c26.535 0 48.047-21.512 48.047-48.047 0-26.535-21.512-48.047-48.047-48.047zm0 0" fill="#b8ecff"/><path d="M456.445 264.258c-1.375 0-2.738.074-4.086.183a128.405 128.405 0 004.086-32.214c0-70.762-57.363-128.125-128.125-128.125-4.05 0-8.054.199-12.011.566 65.129 6.055 116.113 60.848 116.113 127.559 0 11.128-1.422 21.921-4.086 32.214a48.691 48.691 0 014.086-.183c26.535 0 48.047 21.512 48.047 48.047 0 26.535-21.512 48.047-48.047 48.047h24.023c26.535 0 48.047-21.512 48.047-48.047 0-26.535-21.512-48.047-48.047-48.047zm0 0" fill="#57bfe6"/><path d="M280.273 312.805h16.016v15.015h-16.016zm32.032 0h16.015v15.015h-16.015zm32.031 0h16.016v15.015h-16.016zm0 0" fill="#fff"/><path d="M184.18 127.625v-15.016c-39.465 0-71.57 32.106-71.57 71.57h15.015c0-31.183 25.371-56.554 56.555-56.554zm0 0"/><path d="M79.578 184.18c0-57.68 46.926-104.602 104.602-104.602 24.578 0 48.457 8.692 67.242 24.473l9.656-11.496c-21.484-18.051-48.793-27.993-76.898-27.993-65.957 0-119.618 53.66-119.618 119.618 0 36.875 16.626 71.129 45.618 93.984l9.297-11.789c-25.36-19.992-39.899-49.95-39.899-82.195zm0 0"/><path d="M461.648 257.004a135.035 135.035 0 002.305-24.777c0-74.79-60.844-135.633-135.633-135.633-72.394 0-131.722 57.011-135.445 128.496-36.04 3.68-64.25 34.457-64.25 71.45 0 39.464 32.105 71.82 71.57 71.82h256.25c30.633 0 55.555-25.173 55.555-55.805 0-28.875-22.148-52.918-50.352-55.551zm-5.203 96.34h-256.25c-31.183 0-56.554-25.621-56.554-56.805 0-28.719 21.527-52.617 49.289-56.2a135.103 135.103 0 004.03 25.852l14.54-3.773a121.297 121.297 0 01-3.797-30.176c0-66.512 54.11-120.629 120.617-120.629 66.508 0 120.618 54.106 120.618 120.617 0 27.727-9.149 53.793-26.454 75.38L434.2 317c10.778-13.445 18.836-28.836 23.828-45.195 21.621.836 38.957 18.925 38.957 40.75 0 22.355-18.183 40.789-40.539 40.789zm0 0"/><path d="M240.734 232.227h15.016c0-40.016 32.555-72.57 72.57-72.57V144.64c-48.293 0-87.586 39.289-87.586 87.586zM0 177.172h48.047v15.016H0zM176.172 0h15.016v48.047h-15.016zm138.816 42.742l10.617 10.617-40.039 40.04L274.95 82.78zM53.367 325.633L42.75 315.016l40.04-40.04 10.616 10.618zm-.012-282.895l40.04 40.04-10.618 10.617-40.039-40.04zm0 0"/></symbol><symbol viewBox="0 -28 512 512" id="few-clouds-night" xmlns="http://www.w3.org/2000/svg"><path d="M199.902 80.156C186.5 70.09 169.848 64.125 151.797 64.125c-44.27 0-80.156 35.887-80.156 80.156s35.886 80.156 80.156 80.156c18.047 0 34.703-5.964 48.101-16.03l8.008 8.015c-20.586 24.504-53.664 40.078-88.172 40.078-61.976 0-112.218-50.242-112.218-112.219S57.758 32.062 119.734 32.062c34.508 0 67.586 15.575 88.172 40.079zm0 0" fill="#feef7f"/><path d="M456.39 352.688c-1.378 0-2.742.074-4.09.187a128.505 128.505 0 004.09-32.25c0-70.828-57.417-128.25-128.25-128.25-70.827 0-128.25 57.422-128.25 128.25-35.413 0-64.124 28.71-64.124 64.125 0 35.418 28.71 64.125 64.125 64.125h256.5c26.562 0 48.093-21.531 48.093-48.094 0-26.558-21.53-48.094-48.093-48.094zm0 0" fill="#daedf7"/><path d="M456.39 352.688c-1.378 0-2.742.074-4.09.187a128.505 128.505 0 004.09-32.25c0-70.828-57.417-128.25-128.25-128.25-4.054 0-8.062.2-12.023.566 65.192 6.063 116.227 60.91 116.227 127.684a128.51 128.51 0 01-4.09 32.25 48.778 48.778 0 014.09-.188c26.562 0 48.094 21.536 48.094 48.094 0 26.563-21.532 48.094-48.094 48.094h24.047c26.562 0 48.093-21.531 48.093-48.094 0-26.558-21.53-48.094-48.093-48.094zm0 0" fill="#8bb4d9"/><path d="M280.047 401.285h16.031v15.027h-16.031zm32.063 0h16.03v15.027h-16.03zm32.062 0h16.031v15.027h-16.031zM119.734 32.063c-17.707 0-32.062 14.359-32.062 32.062 0-17.703-14.36-32.063-32.063-32.063 17.703 0 32.063-14.359 32.063-32.062 0 17.703 14.355 32.063 32.062 32.063zm8.016 280.547c-17.703 0-32.063 14.359-32.063 32.062 0-17.703-14.359-32.063-32.062-32.063 17.703 0 32.063-14.355 32.063-32.062 0 17.707 14.359 32.062 32.062 32.062zm120.234-168.329c-17.703 0-32.062 14.36-32.062 32.063 0-17.703-14.36-32.063-32.063-32.063 17.703 0 32.063-14.36 32.063-32.062 0 17.703 14.36 32.062 32.062 32.062zm0 0" fill="#fff"/><path d="M213.66 221.258l4.43-5.274-17.488-17.504-5.22 3.918c-12.644 9.504-27.718 14.524-43.585 14.524-40.055 0-72.64-32.586-72.64-72.64s32.585-72.641 72.64-72.641c15.867 0 30.941 5.023 43.59 14.527l5.218 3.922 17.485-17.512-4.43-5.27c-18.664-22.218-46.676-37.37-76.86-41.574l-2.07 14.887c21.168 2.95 41.086 11.973 56.551 25.348-12.152-6.156-25.566-9.36-39.484-9.36-48.344 0-87.672 39.328-87.672 87.672s39.328 87.672 87.672 87.672c13.883 0 27.262-3.187 39.387-9.308-19.223 16.5-45.38 26.34-71.45 26.34-57.734 0-104.703-46.97-104.703-104.704 0-34.21 16.774-66.34 44.875-85.941L51.31 46.016C19.179 68.422 0 105.16 0 144.28c0 66.024 53.71 119.735 119.734 119.735 36.32 0 71.434-15.985 93.926-42.758zm247.942 124.168a135.288 135.288 0 002.304-24.801c0-74.86-60.902-135.766-135.765-135.766-72.465 0-131.852 57.07-135.579 128.625-36.074 3.68-64.312 34.489-64.312 71.52 0 39.5 32.137 71.887 71.64 71.887h256.5c30.665 0 55.61-25.196 55.61-55.856 0-28.906-22.172-52.972-50.398-55.61zm-5.211 96.437h-256.5c-31.215 0-56.61-25.644-56.61-56.86 0-28.75 21.547-52.671 49.336-56.253.512 8.777 1.86 17.41 4.035 25.875l14.555-3.777a121.368 121.368 0 01-3.805-30.207c0-66.575 54.164-120.746 120.739-120.746s120.734 54.16 120.734 120.734c0 27.758-9.152 53.848-26.477 75.457l11.727 9.398c10.79-13.457 18.852-28.867 23.852-45.238 21.64.836 38.992 18.945 38.992 40.79 0 22.374-18.203 40.827-40.578 40.827zm0 0"/><path d="M240.469 320.625H255.5c0-40.055 32.586-72.64 72.64-72.64v-15.032c-48.343 0-87.671 39.332-87.671 87.672zM80.156 64.125h15.031c0-13.535 11.012-24.547 24.547-24.547V24.547C106.2 24.547 95.188 13.535 95.188 0H80.156c0 13.535-11.011 24.547-24.547 24.547v15.031c13.536 0 24.547 11.012 24.547 24.547zm7.516-40.965a39.853 39.853 0 008.902 8.902 39.853 39.853 0 00-8.902 8.903 39.935 39.935 0 00-8.902-8.903 39.935 39.935 0 008.902-8.902zm15.531 257.387H88.172c0 13.535-11.012 24.55-24.547 24.55v15.028c13.535 0 24.547 11.012 24.547 24.547h15.031c0-13.535 11.012-24.547 24.547-24.547v-15.027c-13.535 0-24.547-11.016-24.547-24.551zm-7.516 40.965a39.935 39.935 0 00-8.902-8.903 39.917 39.917 0 008.903-8.898 39.836 39.836 0 008.902 8.898 39.853 39.853 0 00-8.903 8.903zm88.173-184.746v15.03c13.535 0 24.546 11.013 24.546 24.548h15.031c0-13.535 11.012-24.547 24.547-24.547v-15.031c-13.535 0-24.547-11.012-24.547-24.547h-15.03c0 13.535-11.012 24.547-24.548 24.547zm32.062-1.387a39.853 39.853 0 008.902 8.902 39.935 39.935 0 00-8.902 8.903 39.935 39.935 0 00-8.902-8.903 39.853 39.853 0 008.902-8.902zm0 0"/></symbol><symbol viewBox="0 -28 512 512" id="mist" xmlns="http://www.w3.org/2000/svg"><g fill="#daedf7"><path d="M63.625 328.11H23.547c-8.86 0-16.031-7.176-16.031-16.032 0-4.43 1.793-8.437 4.687-11.344a16.025 16.025 0 0111.344-4.687h40.078c-4.43 0-8.438 1.793-11.344 4.687a16.025 16.025 0 00-4.687 11.344c0 8.856 7.172 16.031 16.031 16.031zm136.265 32.062h40.079c8.855 0 16.031-7.176 16.031-16.031 0-4.43-1.793-8.438-4.688-11.344a16.025 16.025 0 00-11.343-4.688H199.89a16.02 16.02 0 0111.343 4.688 16.025 16.025 0 014.688 11.344c0 8.855-7.176 16.03-16.031 16.03zm40.079-64.125h40.078c8.855 0 16.031-7.176 16.031-16.031 0-4.43-1.793-8.438-4.687-11.344a16.025 16.025 0 00-11.344-4.688h-40.078c4.43 0 8.437 1.793 11.344 4.688A16.025 16.025 0 01256 280.016c0 8.855-7.176 16.03-16.031 16.03zm0 0"/><path d="M392.266 167.793c-1.38 0-2.743.074-4.09.187a128.505 128.505 0 004.09-32.25c0-70.828-57.418-128.25-128.25-128.25s-128.25 57.422-128.25 128.25c-35.414 0-64.125 28.711-64.125 64.125 0 35.418 28.71 64.13 64.125 64.13h256.5c26.562 0 48.093-21.536 48.093-48.098 0-26.559-21.53-48.094-48.093-48.094zm0 0"/></g><path d="M392.266 167.793c-1.38 0-2.743.074-4.09.187a128.505 128.505 0 004.09-32.25c0-70.828-57.418-128.25-128.25-128.25-4.055 0-8.063.2-12.024.567 65.192 6.062 116.227 60.91 116.227 127.683 0 11.141-1.422 21.946-4.09 32.25a48.778 48.778 0 014.09-.187c26.562 0 48.094 21.535 48.094 48.094 0 26.562-21.532 48.097-48.094 48.097h24.047c26.562 0 48.093-21.535 48.093-48.097 0-26.559-21.53-48.094-48.093-48.094zm0 0" fill="#8bb4d9"/><path d="M215.922 216.39h16.031v15.028h-16.031zm32.062 0h16.032v15.028h-16.032zm32.063 0h16.031v15.028h-16.031zm0 0" fill="#fff"/><path d="M448.375 400.25h40.078c8.86 0 16.031-7.176 16.031-16.031 0-4.43-1.793-8.438-4.687-11.344a16.025 16.025 0 00-11.344-4.688h-40.078c4.43 0 8.438 1.793 11.344 4.688a16.025 16.025 0 014.687 11.344c0 8.855-7.172 16.031-16.031 16.031zm-80.156-32.062H328.14c-8.856 0-16.032-7.176-16.032-16.032 0-4.43 1.793-8.437 4.688-11.344a16.025 16.025 0 0111.344-4.687h40.078a16.008 16.008 0 00-16.031 16.031c0 8.856 7.175 16.031 16.03 16.031zm-88.172 64.125h-40.078c-8.856 0-16.031-7.176-16.031-16.032 0-4.43 1.792-8.437 4.687-11.344a16.025 16.025 0 0111.344-4.687h40.078c-4.43 0-8.438 1.793-11.344 4.688a16.025 16.025 0 00-4.687 11.343c0 8.856 7.175 16.031 16.03 16.031zm0 0" fill="#daedf7"/><path d="M135.766 271.496V256.47c-31.215 0-56.61-25.395-56.61-56.614 0-28.746 21.547-52.542 49.336-56.125a135.727 135.727 0 004.035 25.938l14.555-3.746a121.222 121.222 0 01-3.805-30.192c0-66.574 54.164-120.734 120.739-120.734S384.75 69.16 384.75 135.73c0 27.758-9.156 53.852-26.477 75.461L370 220.59c10.79-13.457 18.852-28.867 23.852-45.238 21.64.835 38.992 18.945 38.992 40.789 0 22.375-18.203 40.828-40.578 40.828h-72.141V272h72.14c30.665 0 55.61-25.195 55.61-55.86 0-28.906-22.172-52.847-50.398-55.48a135.965 135.965 0 002.304-24.863C399.781 60.934 338.875 0 264.016 0 191.55 0 132.164 57.055 128.437 128.605c-36.074 3.684-64.312 34.23-64.312 71.262 0 39.5 32.137 71.63 71.64 71.63zm0 0"/><path d="M191.375 135.73c0-40.054 32.586-72.64 72.64-72.64V48.062c-48.343 0-87.671 39.329-87.671 87.668zm72.141 208.91c0-12.984-10.563-23.546-23.547-23.546H63.625c-4.695 0-8.516-3.82-8.516-8.516s3.82-8.515 8.516-8.515h216.422c12.984 0 23.547-10.563 23.547-23.547s-10.563-23.547-23.547-23.547H175.844c-4.696 0-8.516-4.07-8.516-8.766 0-4.7 3.82-8.77 8.516-8.77v-15.027c-12.985 0-23.547 10.813-23.547 23.797 0 12.98 10.562 23.797 23.547 23.797h64.125c4.695 0 8.515 3.82 8.515 8.516s-3.82 8.515-8.515 8.515H23.547C10.562 289.031 0 299.594 0 312.578s10.563 23.547 23.547 23.547H199.89c4.695 0 8.515 3.82 8.515 8.516s-3.82 8.515-8.515 8.515h-56.11c-12.984 0-24.047 10.063-24.047 23.047v8.016h15.028v-8.016c0-4.7 4.324-8.015 9.02-8.015h96.187c12.984 0 23.547-10.563 23.547-23.547zM261.914 272h18.133c4.695 0 8.515 3.82 8.515 8.516s-3.82 8.515-8.515 8.515h-18.133c1.031-3.004 1.602-5.511 1.602-8.515s-.57-6.512-1.602-8.516zM41.68 321.094H23.547c-4.695 0-8.516-3.82-8.516-8.516s3.82-8.515 8.516-8.515H41.68c-1.032 2.003-1.602 5.511-1.602 8.515s.57 5.512 1.602 8.516zm180.156 15.031h18.133c4.695 0 8.515 3.82 8.515 8.516s-3.82 8.515-8.515 8.515h-18.133c1.031-3.004 1.601-5.511 1.601-8.515s-.57-6.512-1.601-8.516zm266.617 25.047H368.22c-4.696 0-8.516-3.82-8.516-8.516s3.82-8.515 8.516-8.515h56.11c12.983 0 23.546-10.817 23.546-23.797 0-12.985-10.563-23.797-23.547-23.797v15.027c4.695 0 8.516 4.074 8.516 8.77s-3.82 8.765-8.516 8.765h-96.187c-12.985 0-23.547 10.563-23.547 23.547s10.562 23.547 23.547 23.547h120.234c4.695 0 8.516 3.82 8.516 8.516s-3.82 8.515-8.516 8.515H239.969c-12.985 0-23.547 10.563-23.547 23.547s10.562 23.547 23.547 23.547h48.094c4.695 0 8.015 3.32 8.015 8.016v8.015h15.031v-8.015c0-12.985-10.062-23.047-23.046-23.047h-8.016c-4.695 0-8.516-3.82-8.516-8.516s3.82-8.515 8.516-8.515h208.406c12.985 0 23.547-10.563 23.547-23.547s-10.563-23.547-23.547-23.547zm-142.18 0h-18.132c-4.696 0-8.516-3.82-8.516-8.516s3.82-8.515 8.516-8.515h18.132c-1.027 2.004-1.601 5.511-1.601 8.515s.574 5.512 1.601 8.516zm-88.171 64.125h-18.133c-4.696 0-8.516-3.82-8.516-8.516s3.82-8.515 8.516-8.515h18.133c-1.032 2.004-1.602 5.511-1.602 8.515s.57 5.512 1.602 8.516zm230.351-32.063H470.32c1.032-3.004 1.602-5.511 1.602-8.515s-.57-6.512-1.602-8.516h18.133c4.695 0 8.516 3.82 8.516 8.516s-3.82 8.515-8.516 8.515zm0 0"/></symbol><symbol viewBox="0 -76 512 512" id="rain" xmlns="http://www.w3.org/2000/svg"><path d="M103.703 127.57c0 26.563-21.531 48.094-48.094 48.094S7.516 154.133 7.516 127.57 55.609 15.352 55.609 15.352s48.094 85.656 48.094 112.218zm0 0" fill="#b8ecff"/><path d="M55.61 15.352s-5.126 9.125-12.024 22.335c14.242 27.278 36.07 71.989 36.07 89.883 0 22.41-15.328 41.239-36.07 46.578a48.197 48.197 0 0012.023 1.516c26.563 0 48.094-21.531 48.094-48.094S55.61 15.352 55.61 15.352zm0 0" fill="#57bfe6"/><path d="M264.016 127.57c0 26.563-21.532 48.094-48.094 48.094s-48.094-21.531-48.094-48.094 48.094-112.218 48.094-112.218 48.094 85.656 48.094 112.218zm0 0" fill="#b8ecff"/><path d="M215.922 15.352s-5.125 9.125-12.024 22.335c14.247 27.278 36.07 71.989 36.07 89.883 0 22.41-15.327 41.239-36.07 46.578a48.22 48.22 0 0012.024 1.516c26.562 0 48.094-21.531 48.094-48.094S215.922 15.352 215.922 15.352zm0 0" fill="#57bfe6"/><path d="M424.328 127.57c0 26.563-21.531 48.094-48.094 48.094s-48.093-21.531-48.093-48.094 48.093-112.218 48.093-112.218 48.094 85.656 48.094 112.218zm0 0" fill="#b8ecff"/><path d="M376.234 15.352s-5.12 9.125-12.023 22.335c14.246 27.278 36.07 71.989 36.07 89.883 0 22.41-15.328 41.239-36.07 46.578a48.22 48.22 0 0012.023 1.516c26.563 0 48.094-21.531 48.094-48.094S376.234 15.352 376.234 15.352zm0 0" fill="#57bfe6"/><path d="M31.563 128.07h16.03v15.028h-16.03zm160.312 0h16.031v15.028h-16.031zm160.313 0h16.03v15.028h-16.03zm0 0" fill="#fff"/><path d="M183.86 303.914c0 26.563-21.532 48.094-48.094 48.094s-48.094-21.531-48.094-48.094 48.094-112.219 48.094-112.219 48.093 85.657 48.093 112.22zm0 0" fill="#b8ecff"/><path d="M135.766 191.695s-5.125 9.125-12.024 22.336c14.246 27.278 36.07 71.989 36.07 89.883 0 22.41-15.328 41.238-36.07 46.578a48.22 48.22 0 0012.024 1.516c26.562 0 48.093-21.531 48.093-48.094s-48.093-112.219-48.093-112.219zm0 0" fill="#57bfe6"/><path d="M344.172 303.914c0 26.563-21.531 48.094-48.094 48.094s-48.094-21.531-48.094-48.094 48.094-112.219 48.094-112.219 48.094 85.657 48.094 112.22zm0 0" fill="#b8ecff"/><path d="M296.078 191.695s-5.121 9.125-12.023 22.336c14.246 27.278 36.07 71.989 36.07 89.883 0 22.41-15.328 41.238-36.07 46.578a48.22 48.22 0 0012.023 1.516c26.563 0 48.094-21.531 48.094-48.094s-48.094-112.219-48.094-112.219zm0 0" fill="#57bfe6"/><path d="M504.484 303.914c0 26.563-21.53 48.094-48.093 48.094s-48.094-21.531-48.094-48.094 48.094-112.219 48.094-112.219 48.093 85.657 48.093 112.22zm0 0" fill="#b8ecff"/><path d="M456.39 191.695s-5.12 9.125-12.023 22.336c14.246 27.278 36.07 71.989 36.07 89.883 0 22.41-15.324 41.238-36.07 46.578a48.22 48.22 0 0012.024 1.516c26.562 0 48.093-21.531 48.093-48.094s-48.093-112.219-48.093-112.219zm0 0" fill="#57bfe6"/><path d="M111.219 127.57c0-27.726-44.035-106.957-49.059-115.898L55.61 0l-6.555 11.668C44.035 20.613 0 99.844 0 127.57c0 30.66 24.945 55.61 55.61 55.61s55.609-24.95 55.609-55.61zm-55.61 40.578c-22.375 0-40.578-18.203-40.578-40.578 0-17.36 25.196-67.933 40.578-96.582 15.383 28.645 40.578 79.215 40.578 96.582 0 22.375-18.203 40.578-40.578 40.578zm215.922-40.578c0-27.726-44.035-106.957-49.058-115.898L215.922 0l-6.555 11.668c-5.02 8.945-49.054 88.176-49.054 115.902 0 30.66 24.945 55.61 55.609 55.61s55.61-24.95 55.61-55.61zm-55.61 40.578c-22.374 0-40.577-18.203-40.577-40.578 0-17.36 25.195-67.933 40.578-96.582 15.383 28.645 40.578 79.219 40.578 96.582 0 22.375-18.203 40.578-40.578 40.578zm215.923-40.578c0-27.726-44.035-106.957-49.055-115.898L376.234 0l-6.55 11.668c-5.024 8.945-49.059 88.176-49.059 115.902 0 30.66 24.945 55.61 55.61 55.61s55.609-24.95 55.609-55.61zm-55.61 40.578c-22.375 0-40.578-18.203-40.578-40.578 0-17.36 25.2-67.933 40.578-96.582 15.383 28.645 40.579 79.219 40.579 96.582 0 22.375-18.204 40.578-40.579 40.578zm-240.468 8.196l-6.555 11.672c-5.02 8.941-49.055 88.172-49.055 115.898 0 30.664 24.946 55.61 55.61 55.61s55.609-24.946 55.609-55.61c0-27.726-44.035-106.957-49.059-115.898zm0 168.148c-22.375 0-40.578-18.203-40.578-40.578 0-17.355 25.195-67.934 40.578-96.582 15.382 28.645 40.578 79.215 40.578 96.582 0 22.375-18.203 40.578-40.578 40.578zm160.312-168.148l-6.55 11.672c-5.024 8.941-49.06 88.172-49.06 115.898 0 30.664 24.946 55.61 55.61 55.61s55.61-24.946 55.61-55.61c0-27.726-44.036-106.957-49.055-115.898zm0 168.148c-22.375 0-40.578-18.203-40.578-40.578 0-17.355 25.195-67.934 40.578-96.582 15.383 28.645 40.578 79.215 40.578 96.582 0 22.375-18.203 40.578-40.578 40.578zm166.867-156.476l-6.554-11.672-6.551 11.672c-5.024 8.941-49.059 88.172-49.059 115.898 0 30.664 24.946 55.61 55.61 55.61S512 334.577 512 303.913c0-27.726-44.035-106.957-49.055-115.898zm-6.554 156.476c-22.375 0-40.579-18.203-40.579-40.578 0-17.355 25.2-67.934 40.579-96.582 15.382 28.645 40.578 79.215 40.578 96.582 0 22.375-18.203 40.578-40.578 40.578zm0 0"/><path d="M111.719 304.414h16.031v15.031h-16.031zm160.312 0h16.031v15.031h-16.03zm160.313 0h16.031v15.031h-16.031zm0 0" fill="#fff"/></symbol><symbol viewBox="0 -88 512 512" id="scattered-clouds" xmlns="http://www.w3.org/2000/svg"><path d="M504.484 259.633c0-37.63-30.504-68.133-68.132-68.133-4.817 0-9.516.508-14.051 1.457a161.463 161.463 0 002.027-25.504c0-88.539-71.773-160.312-160.312-160.312-83.278 0-151.715 63.496-159.555 144.714a89.212 89.212 0 00-8.773-.433c-48.696 0-88.172 39.476-88.172 88.172s39.476 88.172 88.172 88.172h344.671v-.13c35.762-2.073 64.125-31.722 64.125-68.003zm0 0" fill="#b8ecff"/><path d="M215.922 280.172h16.031v15.031h-16.031zm32.062 0h16.032v15.031h-16.032zm32.063 0h16.031v15.031h-16.031zm0 0" fill="#fff"/><path d="M400.281 167.453c0 8.68-.699 17.195-2.027 25.504a68.526 68.526 0 0124.152-.707 161.166 161.166 0 001.922-24.797c0-88.539-71.773-160.312-160.312-160.312-4.043 0-8.051.152-12.02.445 82.922 6.152 148.285 75.375 148.285 159.867zm36.071 24.047a68.29 68.29 0 00-12.004 1.082c31.882 5.688 56.09 33.535 56.09 67.05 0 36.282-28.364 65.93-64.125 68.005v.129h24.046v-.13c35.762-2.074 64.125-31.722 64.125-68.003 0-37.63-30.504-68.133-68.132-68.133zm0 0" fill="#57bfe6"/><path d="M436.352 184.484h-5.309c.527-6.011.8-11.222.8-16.78C431.844 75.16 356.556 0 264.017 0 179.465 0 109.332 62.246 97.848 144.406h-2.16C42.925 144.406 0 187.332 0 240.094s42.926 95.687 95.688 95.687h340.664c41.714 0 75.648-33.937 75.648-75.648s-33.934-75.649-75.648-75.649zm0 136.266H95.688c-44.477 0-80.657-36.18-80.657-80.656s36.18-80.656 80.656-80.656h.715c-.14 2.003-.215 5.41-.215 8.265 0 11.293 1.13 22.461 3.36 33.434l14.726-3.055a154.312 154.312 0 01-3.054-30.598c0-84.254 68.543-152.816 152.797-152.816s152.796 68.539 152.796 152.793c0 33.375-10.562 65.078-30.554 91.684l12.015 9.277c15.547-20.692 25.899-44.86 30.622-68.906h7.457c33.425 0 60.617 27.191 60.617 60.617s-27.192 60.617-60.617 60.617zm0 0"/><path d="M152.297 167.453h15.031c0-53.316 43.375-96.691 96.688-96.691V55.734c-61.602 0-111.72 50.118-111.72 111.72zm0 0"/></symbol><symbol viewBox="0 1 511 512" id="shower-rain" xmlns="http://www.w3.org/2000/svg"><path d="M328.32 167.664c-1.379 0-2.738.07-4.086.184a128.429 128.429 0 004.086-32.215c0-70.762-57.363-128.125-128.125-128.125-70.761 0-128.125 57.363-128.125 128.125-35.382 0-64.062 28.68-64.062 64.062 0 35.38 28.68 64.063 64.062 64.063h256.25c26.535 0 48.047-21.512 48.047-48.047 0-26.535-21.512-48.047-48.047-48.047zm0 0" fill="#8bb4d9"/><path d="M456.445 231.727c-1.379 0-2.738.07-4.086.183a128.226 128.226 0 004.086-32.215c0-70.761-57.363-128.125-128.125-128.125-70.761 0-128.125 57.364-128.125 128.125-35.379 0-64.062 28.68-64.062 64.063 0 35.379 28.683 64.062 64.062 64.062h256.25c26.535 0 48.047-21.511 48.047-48.047 0-26.535-21.512-48.046-48.047-48.046zm0 0" fill="#daedf7"/><path d="M280.273 280.273h16.016v15.016h-16.016zm32.032 0h16.015v15.016h-16.015zm32.031 0h16.016v15.016h-16.016zm0 0" fill="#fff"/><path d="M456.445 231.727c-1.379 0-2.738.07-4.086.183a128.226 128.226 0 004.086-32.215c0-70.761-57.363-128.125-128.125-128.125-4.05 0-8.054.196-12.011.563 65.129 6.058 116.113 60.851 116.113 127.562a128.22 128.22 0 01-4.086 32.215 48.691 48.691 0 014.086-.183c26.535 0 48.047 21.511 48.047 48.046 0 26.536-21.512 48.047-48.047 48.047h24.023c26.535 0 48.047-21.511 48.047-48.047 0-26.535-21.512-48.046-48.047-48.046zm0 0" fill="#8bb4d9"/><path d="M15.516 199.945c0-28.722 21.523-52.62 49.289-56.199a134.797 134.797 0 004.03 25.852l14.54-3.778a121.243 121.243 0 01-3.797-30.172c0-66.511 54.106-120.628 120.617-120.628 34.582 0 67.555 14.878 90.461 40.832l11.258-9.942C276.16 16.734 239.086 0 200.195 0 127.801 0 68.473 57.012 64.75 128.496 28.71 132.176.5 162.953.5 199.946c0 39.464 32.105 71.82 71.57 71.82h40.04V256.75H72.07c-31.187 0-56.554-25.621-56.554-56.805zm0 0"/><path d="M200.195 63.063V48.047c-48.297 0-87.586 39.289-87.586 87.586h15.016c0-40.016 32.555-72.57 72.57-72.57zm261.453 161.406a134.993 134.993 0 002.305-24.774c0-74.789-60.844-135.632-135.633-135.632-72.394 0-131.722 57.011-135.445 128.496-36.04 3.675-64.25 34.457-64.25 71.449 0 39.46 32.105 71.82 71.57 71.82h256.25c30.633 0 55.555-25.172 55.555-55.805 0-28.878-22.148-52.921-50.352-55.554zm-5.203 96.344h-256.25c-31.183 0-56.554-25.622-56.554-56.805 0-28.723 21.527-52.617 49.289-56.2a135.103 135.103 0 004.03 25.852l14.544-3.773a121.118 121.118 0 01-3.8-30.176c0-66.512 54.108-120.629 120.616-120.629 66.508 0 120.618 54.106 120.618 120.617 0 27.727-9.145 53.793-26.45 75.38l11.715 9.39c10.777-13.446 18.832-28.836 23.824-45.196 21.625.836 38.957 18.926 38.957 40.75 0 22.352-18.183 40.79-40.539 40.79zm0 0"/><path d="M240.734 199.695h15.016c0-40.015 32.555-72.57 72.57-72.57v-15.016c-48.297 0-87.586 39.29-87.586 87.586zM88.086 287.781h15.012v160.156H88.086zm40.039 48.047h15.012v144.14h-15.012zm40.039 160.156h15.016V512h-15.016zm0-144.14h15.016v128.125h-15.016zm40.039 0h15.016V512h-15.016zm40.039 0h15.016v112.11h-15.016zm40.039 0h15.016V512H288.28zm40.039 0h15.016v144.14H328.32zm40.04 112.109h15.015v16.016h-15.016zm0-112.109h15.015v96.094h-15.016zm40.038 0h15.016V512h-15.016zm0 0"/></symbol><symbol viewBox="0 -8 512 512" id="snow" xmlns="http://www.w3.org/2000/svg"><path d="M504.484 259.633c0-37.63-30.504-68.133-68.132-68.133-4.817 0-9.516.508-14.051 1.457a161.463 161.463 0 002.027-25.504c0-88.539-71.773-160.312-160.312-160.312-83.278 0-151.715 63.496-159.555 144.714a89.212 89.212 0 00-8.773-.433c-48.696 0-88.172 39.476-88.172 88.172s39.476 88.172 88.172 88.172h344.671v-.13c35.762-2.073 64.125-31.722 64.125-68.003zm0 0" fill="#daedf7"/><path d="M400.281 167.453c0 8.68-.699 17.2-2.027 25.504a68.526 68.526 0 0124.152-.707 161.204 161.204 0 001.922-24.797c0-88.539-71.773-160.312-160.312-160.312-4.043 0-8.051.152-12.02.445 82.922 6.152 148.285 75.375 148.285 159.867zm36.071 24.047a68.29 68.29 0 00-12.004 1.082c31.882 5.688 56.09 33.535 56.09 67.05 0 36.282-28.364 65.93-64.125 68.005v.129h24.046v-.13c35.762-2.074 64.125-31.722 64.125-68.003 0-37.63-30.504-68.133-68.132-68.133zm0 0" fill="#8bb4d9"/><path d="M210.652 327.766l45.344-45.344 45.344 45.344-45.344 45.34zm-82.902 72.14c0 8.856-7.18 16.031-16.031 16.031-8.856 0-16.031-7.175-16.031-16.03s7.175-16.032 16.03-16.032c8.852 0 16.032 7.176 16.032 16.031zm320.625-24.046c0 8.855-7.176 16.03-16.031 16.03-8.852 0-16.031-7.175-16.031-16.03s7.18-16.032 16.03-16.032c8.856 0 16.032 7.176 16.032 16.031zm-64.125 48.093c0 8.856-7.176 16.031-16.031 16.031-8.852 0-16.031-7.175-16.031-16.03s7.18-16.032 16.03-16.032c8.856 0 16.032 7.176 16.032 16.031zm-192.375 48.094c0 8.855-7.176 16.031-16.031 16.031s-16.031-7.176-16.031-16.031 7.175-16.031 16.03-16.031 16.032 7.175 16.032 16.03zm0 0" fill="#b8ecff"/><path d="M215.922 151.922h16.031v15.027h-16.031zm32.062 0h16.032v15.027h-16.032zm32.063 0h16.031v15.027h-16.031zm0 0" fill="#fff"/><path d="M436.352 184.484h-5.309c.527-6.011.8-11.222.8-16.78C431.844 75.16 356.556 0 264.017 0 179.465 0 109.332 62.246 97.848 144.406h-2.16C42.925 144.406 0 187.332 0 240.094s42.926 95.687 95.688 95.687h8.015V320.75h-8.016c-44.476 0-80.656-36.18-80.656-80.656s36.18-80.656 80.656-80.656h.715c-.14 2.003-.215 5.41-.215 8.265 0 11.293 1.13 22.461 3.36 33.434l14.726-3.055a154.312 154.312 0 01-3.054-30.598c0-84.254 68.543-152.816 152.797-152.816s152.796 68.539 152.796 152.793c0 33.375-10.566 65.078-30.554 91.684l12.015 9.277c15.547-20.692 25.899-44.86 30.622-68.906h7.457c33.425 0 60.617 27.191 60.617 60.617s-27.192 60.617-60.617 60.617h-28.055v15.031h28.055c41.714 0 75.648-33.937 75.648-75.648 0-41.715-33.934-75.649-75.648-75.649zm0 0"/><path d="M264.016 70.762V55.734c-61.602 0-111.72 50.118-111.72 111.72h15.032c0-53.317 43.375-96.692 96.688-96.692zM381.55 309.281l-10.628-10.5-21.848 21.969h-26.836l35.266-35.516-10.629-10.75-44.156 44.094-37.465-37.5 44.156-44.172-10.879-10.633-35.515 35.254v-26.836l22.093-21.847-10.75-10.625-11.343 11.215V191.5h-15.032v21.934l-10.968-11.215-10.75 10.625 21.718 21.847v26.836l-35.011-35.261-10.504 10.625 44.219 44.156-37.438 37.465-44.137-44.153-10.62 10.875 35.273 35.516h-26.84l-21.844-22.094-10.629 10.75 11.219 11.344h-21.938v15.031h21.934l-11.219 10.969 10.63 10.75 21.847-21.719h26.836l-35.266 35.016 10.629 10.5 44.156-44.219 37.465 37.438-44.156 44.14 10.379 10.617L247.98 394v26.84l-21.593 21.847 10.5 10.625 11.093-11.218v21.937h15.028v-21.937l11.469 11.219 10.503-10.625-21.964-21.848V394l35.511 35.266 10.754-10.625-44.094-44.157 37.5-37.468 44.172 44.156 10.633-10.375-35.258-35.016h26.84l21.844 21.594 10.629-10.5-11.219-11.094h21.938V320.75h-21.934zM256 362.481l-34.715-34.715L256 293.05l34.715 34.715zM111.719 376.36c-12.985 0-23.547 10.562-23.547 23.546s10.562 23.547 23.547 23.547 23.547-10.562 23.547-23.547-10.563-23.547-23.547-23.547zm0 32.062c-4.696 0-8.516-3.82-8.516-8.516s3.82-8.515 8.516-8.515 8.515 3.82 8.515 8.515-3.82 8.516-8.515 8.516zm320.625-56.109c-12.985 0-23.547 10.562-23.547 23.546s10.562 23.547 23.547 23.547 23.547-10.562 23.547-23.547-10.563-23.546-23.547-23.546zm0 32.062c-4.696 0-8.516-3.82-8.516-8.516s3.82-8.515 8.516-8.515 8.515 3.82 8.515 8.515-3.82 8.516-8.515 8.516zm-64.125 16.031c-12.985 0-23.547 10.563-23.547 23.547s10.562 23.547 23.547 23.547 23.547-10.563 23.547-23.547-10.563-23.547-23.547-23.547zm0 32.063c-4.696 0-8.516-3.82-8.516-8.516s3.82-8.515 8.516-8.515 8.515 3.82 8.515 8.515-3.82 8.516-8.515 8.516zM175.844 448.5c-12.985 0-23.547 10.563-23.547 23.547s10.562 23.547 23.547 23.547 23.547-10.563 23.547-23.547-10.563-23.547-23.547-23.547zm0 32.063c-4.696 0-8.516-3.82-8.516-8.516s3.82-8.516 8.516-8.516 8.515 3.82 8.515 8.516-3.82 8.515-8.515 8.515zm0 0"/></symbol><symbol viewBox="0 -16 512 512" id="thunderstorm" xmlns="http://www.w3.org/2000/svg"><path d="M328.14 167.828c-1.378 0-2.742.07-4.09.184a128.497 128.497 0 004.09-32.246c0-70.832-57.417-128.25-128.25-128.25S71.64 64.934 71.64 135.766c-35.413 0-64.124 28.707-64.124 64.125 0 35.414 28.71 64.125 64.125 64.125h256.5c26.562 0 48.093-21.532 48.093-48.094s-21.53-48.094-48.093-48.094zm0 0" fill="#8bb4d9"/><path d="M456.39 231.953c-1.378 0-2.742.07-4.09.184a128.497 128.497 0 004.09-32.246c0-70.832-57.417-128.25-128.25-128.25-70.827 0-128.25 57.418-128.25 128.25-35.413 0-64.124 28.707-64.124 64.125 0 35.414 28.71 64.125 64.125 64.125h256.5c26.562 0 48.093-21.532 48.093-48.094s-21.53-48.094-48.093-48.094zm0 0" fill="#daedf7"/><path d="M280.047 240.469h16.031v15.027h-16.031zm32.063 0h16.03v15.027h-16.03zm32.062 0h16.031v15.027h-16.031zm0 0" fill="#fff"/><path d="M456.39 231.953c-1.378 0-2.742.07-4.09.184a128.497 128.497 0 004.09-32.246c0-70.832-57.417-128.25-128.25-128.25-4.054 0-8.066.195-12.023.562 65.192 6.063 116.227 60.91 116.227 127.688 0 11.136-1.422 21.941-4.09 32.246a48.785 48.785 0 014.09-.184c26.562 0 48.094 21.531 48.094 48.094s-21.532 48.094-48.094 48.094h24.047c26.562 0 48.093-21.532 48.093-48.094s-21.53-48.094-48.093-48.094zm0 0" fill="#8bb4d9"/><path d="M448.375 408.297c0 8.855-7.176 16.031-16.031 16.031s-16.031-7.176-16.031-16.031 16.03-40.078 16.03-40.078 16.032 31.222 16.032 40.078zM384.25 456.39c0 8.856-7.176 16.032-16.031 16.032s-16.031-7.176-16.031-16.031 16.03-40.079 16.03-40.079 16.032 31.223 16.032 40.079zm-256.5-48.093c0 8.855 7.176 16.031 16.031 16.031s16.031-7.176 16.031-16.031-16.03-40.078-16.03-40.078-16.032 31.222-16.032 40.078zm64.125 48.093c0 8.856 7.176 16.032 16.031 16.032s16.031-7.176 16.031-16.031-16.03-40.079-16.03-40.079-16.032 31.223-16.032 40.079zm0 0" fill="#b8ecff"/><path d="M328.14 328.14l24.048-48.093h-56.11L256 360.203h56.11l-40.08 80.157h8.016L384.25 328.141zm0 0" fill="#feef7f"/><path d="M328.14 328.14l24.048-48.093H328.14l-24.047 48.094zm32.063 0l-69.469 74.813-18.703 37.406h8.016L384.25 328.141h-24.047zm0 0" fill="#ea9a10"/><path d="M15.031 200.14c0-28.75 21.547-52.671 49.336-56.253a135.3 135.3 0 004.035 25.875l14.555-3.778a121.31 121.31 0 01-3.8-30.203c0-66.574 54.16-120.746 120.734-120.746 34.617 0 67.62 14.895 90.55 40.871l11.27-9.949C275.93 16.75 238.816 0 199.89 0 127.426 0 68.039 57.07 64.313 128.621 28.238 132.305 0 163.113 0 200.141c0 39.504 32.137 71.89 71.64 71.89h40.079v-15.027H71.64c-31.215 0-56.61-25.649-56.61-56.863zm0 0"/><path d="M199.89 63.121V48.094c-48.343 0-87.671 39.328-87.671 87.672h15.031c0-40.055 32.586-72.645 72.64-72.645zm261.712 161.57a135.288 135.288 0 002.304-24.8c0-74.864-60.902-135.766-135.765-135.766-72.465 0-131.852 57.07-135.579 128.625-36.074 3.68-64.312 34.488-64.312 71.516 0 39.504 32.137 71.89 71.64 71.89h40.079V321.13H199.89c-31.215 0-56.61-25.649-56.61-56.863 0-28.75 21.547-52.668 49.336-56.254a135.388 135.388 0 004.035 25.879l14.555-3.778a121.345 121.345 0 01-3.805-30.207c0-66.574 54.164-120.742 120.739-120.742s120.734 54.156 120.734 120.73c0 27.754-9.152 53.844-26.477 75.454l11.727 9.402c10.79-13.46 18.855-28.867 23.852-45.242 21.64.836 38.992 18.945 38.992 40.789 0 22.375-18.203 40.832-40.578 40.832h-40.079v15.027h40.079c30.664 0 55.609-25.195 55.609-55.86 0-28.905-22.172-52.972-50.398-55.605zm0 0"/><path d="M328.14 127.246V112.22c-48.343 0-87.671 39.328-87.671 87.672H255.5c0-40.055 32.586-72.645 72.64-72.645zm104.204 224.52l-6.684 13.02c-3.957 7.706-16.863 33.609-16.863 43.51 0 12.985 10.562 23.548 23.547 23.548s23.547-10.563 23.547-23.547c0-9.899-12.907-35.805-16.86-43.512zm0 65.046c-4.696 0-8.516-3.82-8.516-8.515.016-2.938 3.777-12.512 8.516-22.86 4.742 10.344 8.5 19.918 8.515 22.86 0 4.695-3.82 8.515-8.515 8.515zm-64.125-16.952l-6.684 13.019c-3.957 7.707-16.863 33.61-16.863 43.512 0 12.984 10.562 23.546 23.547 23.546s23.547-10.562 23.547-23.546c0-9.899-12.907-35.805-16.864-43.512zm0 65.046c-4.696 0-8.516-3.82-8.516-8.515.016-2.938 3.777-12.512 8.516-22.86 4.742 10.344 8.5 19.918 8.515 22.86 0 4.695-3.82 8.515-8.515 8.515zm-224.438-113.14l-6.683 13.02c-3.957 7.706-16.864 33.609-16.864 43.51 0 12.985 10.563 23.548 23.547 23.548s23.547-10.563 23.547-23.547c0-9.899-12.906-35.805-16.863-43.512zm0 65.046c-4.695 0-8.515-3.82-8.515-8.515.011-2.938 3.773-12.512 8.515-22.86 4.742 10.344 8.5 19.922 8.516 22.86 0 4.695-3.82 8.515-8.516 8.515zm64.125-16.952l-6.683 13.019c-3.957 7.707-16.864 33.61-16.864 43.512 0 12.984 10.563 23.546 23.547 23.546s23.547-10.562 23.547-23.546c0-9.899-12.906-35.805-16.863-43.512zm0 65.046c-4.695 0-8.515-3.82-8.515-8.515.015-2.938 3.773-12.512 8.515-22.86 4.739 10.344 8.5 19.922 8.516 22.86 0 4.695-3.82 8.515-8.516 8.515zm156.442-191.871h-72.914L243.84 368.22h56.11l-40.079 80.156h23.453l118.16-127.246h-61.183zm2.672 63.121l-74.172 79.875 31.422-62.84h-56.11l32.563-65.128h39.304l-24.047 48.093zm0 0"/></symbol></svg>