<?xml version="1.0" encoding="utf-8"?><svg xmlns="http://www.w3.org/2000/svg" xmlns:xlink="http://www.w3.org/1999/xlink"><symbol viewBox="0 -26 512 512" id="loader" xmlns="http://www.w3.org/2000/svg"><path d="M444.633 67.367C401.19 23.926 343.433 0 282 0 194.91 0 115.258 49.477 76.387 126.852H21.152a21.076 21.076 0 00-19.53 13.05 21.085 21.085 0 004.581 23.043l70.567 70.567a18.978 18.978 0 0013.507 5.593 18.96 18.96 0 0013.5-5.59l70.57-70.57a21.085 21.085 0 004.583-23.043 21.072 21.072 0 00-19.532-13.05h-48.777C146.511 67.344 211.445 30 282 30c110.281 0 200 89.719 200 200s-89.719 200-200 200c-53.422 0-103.645-20.8-141.422-58.574-5.855-5.86-15.355-5.86-21.21 0-5.86 5.855-5.86 15.355 0 21.21C162.804 436.079 220.562 460 282 460s119.191-23.922 162.637-67.363C488.078 349.195 512 291.437 512 230c0-61.434-23.922-119.191-67.367-162.633zM90.277 204.59l-47.742-47.738h95.48zm0 0"/></symbol><symbol viewBox="80 0 330.582 491.582" id="map-marker" xmlns="http://www.w3.org/2000/svg"><path d="M245.791 0C153.799 0 78.957 74.841 78.957 166.833c0 36.967 21.764 93.187 68.493 176.926 31.887 57.138 63.627 105.4 64.966 107.433l22.941 34.773a12.497 12.497 0 0020.868 0l22.94-34.771c1.326-2.01 32.835-49.855 64.967-107.435 46.729-83.735 68.493-139.955 68.493-176.926C412.625 74.841 337.783 0 245.791 0zm76.511 331.576c-31.685 56.775-62.696 103.869-64.003 105.848l-12.508 18.959-12.504-18.954c-1.314-1.995-32.563-49.511-64.007-105.853-43.345-77.676-65.323-133.104-65.323-164.743C103.957 88.626 167.583 25 245.791 25s141.834 63.626 141.834 141.833c0 31.643-21.978 87.069-65.323 164.743z"/><path d="M245.791 73.291c-51.005 0-92.5 41.496-92.5 92.5s41.495 92.5 92.5 92.5 92.5-41.496 92.5-92.5-41.495-92.5-92.5-92.5zm0 160c-37.22 0-67.5-30.28-67.5-67.5s30.28-67.5 67.5-67.5c37.221 0 67.5 30.28 67.5 67.5s-30.279 67.5-67.5 67.5z"/></symbol></svg>